<?xml version="1.0" encoding="UTF-8"?>
<svg id="Layer_1" data-name="Layer 1" xmlns="http://www.w3.org/2000/svg" viewBox="0 0 113.81 96.39">
  <defs>
    <style>
      .cls-1 {
        fill: #9f94c7;
        stroke-width: 0px;
      }
    </style>
  </defs>
  <g id="IIVlFG.tif">
    <g>
      <path class="cls-1" d="M27.74,15.39c-.25,0-.51-.01-.76-.02.3-.92,1.19-.92,1.89-1.14.51-.16,1.09-.2,1.64-.14.69.36,1.55.38,2.14.96,1.52,1.39,1.24,3.16.97,4.9-.12.74-.35,1.46.29,2.11,1.65-2.45,1.22-4.91-1.19-6.97-.6-.62-1.48-.64-2.19-1.02-1.35-.08-2.58.26-3.72,1-.3.2-.72.61-1.01.17-.27-.41.22-.69.51-.93.61-.5,1.11-1.15,1.91-1.38.13-.02.24.03.31.14.1.17.39.2.35.48,2.03-.48,4.2.19,6.18-.74.18-.08.39-.05.58,0q.27.5,1.12-.04c1.63-1.07,3.2-2.19,3.58-4.3-.72.43-1.22,1.08-1.76,1.68-1.84,2.09-4.05,3.29-6.9,3.08-.96-.07-1.86.41-2.82.33.6-1.04,1.72-.9,2.6-.93,2.39-.08,4.44-.85,6.13-2.5.85-.83,1.58-1.77,2.36-2.67.25-.28.54-.55.92-.41.42.16.52.6.51.98-.04.89-.34,1.72-.88,2.42-1.43,1.86-3.1,3.36-5.59,3.61-.15.01-.29.12-.55.23,2.52,1.42,4.99,1.97,7.62.56.64-.34,1.38-.59,1.68.24.24.67-.12,1.3-.8,1.78-2.19,1.56-4.38,1.57-6.65.26-.22-.13-.42-.38-.95-.22,1.39,2.11-.28,4.02-.38,6.08-.03.59-.56.7-1.09.44-.84-.4-1.41-1.79-1.2-2.88.17-.85.47-1.68.46-2.56-.04-2.52-2-3.91-4.36-3.06-.33.12-.64.29-.96.43Z"/>
      <path class="cls-1" d="M27.8,9.16c.14.08.27.16.41.24-.15.91-.57,1.79-.41,2.81,1.02-2.49,2.34-4.71,4.08-6.68.51-.58,1.16-1.08,1.26-1.96.04-.39.21-.77.7-.85.28-.05.53.12.57.33.1.43-.24.79-.51,1.01-1.7,1.4-2.86,3.21-3.86,5.24,1.37-1.01,2.8-1.94,4.1-3.04.86-.73,1.53-1.68,2.3-2.53.08-.09.2-.13.28-.22.37-.44.86-.37,1.32-.27.19.04.28.25.22.49-.12.5-.6.83-.92.83-1.17-.02-1.76.77-2.35,1.53-1.2,1.54-3.08,2.19-4.46,3.49-.51.47-1.03.94-1.58,1.45.78.24,1.1-.35,1.57-.57,1.99-.95,4-1.86,5.78-3.18.33-.24.71-.43,1.07-.06.33.34.24.72,0,1.08-.99,1.46-2.35,2.39-4.06,2.8-1.69.41-3.31.97-4.74,2-.04-.03-.07-.06-.1-.09-.83-.03-1.14.71-1.68,1.12-.2.15-.37.51-.68.28-.27-.2-.14-.52-.01-.76.72-1.33,1.09-2.78,1.47-4.22.06-.1.14-.18.25-.22Z"/>
      <path class="cls-1" d="M5.21,26.84c-.71.59-1.56.2-2.34.33-.29.09-.43-.06-.5-.31.13-.25.14-.42-.21-.48-.18-.03-.54-.1-.25-.45,1.92-.08,3.85-.02,5.68-.75.92-.37,1.69-.95,2.42-1.6-.35.96-1.17,1.42-1.95,1.98,2.21.06,4.23-.74,6.29-1.3.07.05.1.11.07.16-.02.05-.05.08-.08.08-.44.63-1.19.51-1.79.72-.83.28-1.68.49-2.51.72-.49.79-1.21.57-1.91.42-.7.3-1.44.23-2.17.28-.27,0-.6-.24-.75.21Z"/>
      <path class="cls-1" d="M92.43,86.51c1,2.13,2.2,4.18,2.12,6.67-.03.85-.43,1.69-.03,2.56.11.23-.1.57-.41.63-.26.05-.54.03-.77-.19-.26-.24-.09-.48.02-.64,1.31-1.98.65-3.94-.06-5.88-.39-1.07-.85-2.11-1.27-3.16.14-.08.27-.07.4.02Z"/>
      <path class="cls-1" d="M11.44,20.53c-.15.44-.31.37-.43,0-.06-.21-.04-.45-.26-.58.31-.5.03-1.01-.08-1.47-.2-.89-.18-1.05.71-1.63.17-.11.25-.39.31-.61.07-.24.19-.41.53-.62-.65,1.67-1,3.26-.79,4.93Z"/>
      <path class="cls-1" d="M49.55,50.59c-.11.21-.32.24-.53.26-.18-.01-.37,0-.44-.23-.16-.23-.32-.46-.47-.69.11-.45-1.1-.47-.37-1.13.84.36,1.85.53,1.81,1.78Z"/>
      <path class="cls-1" d="M88.23,85.62c-.16.1-.31.2-.47.31.41-.99.82-1.97,1.56-2.78.09.78-.64,1.25-.73,1.95-.12.17-.24.35-.35.52Z"/>
      <path class="cls-1" d="M59.76,51.08c.15,0,.33-.04.45.03.22.13.02.24-.08.33-.51.42-1.1.67-1.74.78-.1-.07-.25-.08-.26-.24.21-.43.84.03,1.02-.47.11-.29.4-.3.62-.43Z"/>
      <path class="cls-1" d="M2.37,26.86c.17.1.34.21.5.31.01.2.55.32.2.48-.33.15-.89.15-1.19-.04-.45-.28.22-.43.24-.7.08-.02.17-.03.25-.05Z"/>
      <path class="cls-1" d="M11.73,20.68c-.08-.09-.16-.17-.24-.26.25-.53.5-1.05.76-1.58.14.72-.23,1.26-.51,1.84Z"/>
      <path class="cls-1" d="M70.14,57.26c-1.34-.1-2.53-.62-3.6-1.41,1.25-.08,2.29.44,3.25,1.16.23-.08.37-.01.35.25Z"/>
      <path class="cls-1" d="M70.14,57.26c-.12-.08-.24-.17-.35-.25,1.66-.23,3.2-.79,4.63-1.67,0,0-.02-.01-.02-.01-.71,1.41-2.11,1.5-3.42,1.73-.22.04-.48-.1-.6.2l-.12.03-.12-.03Z"/>
      <path class="cls-1" d="M65.13,55.15c-.21.11-.3.48-.66.26-.58-.35-1.17-.66-1.76-.99.9-.05,1.71.17,2.42.73Z"/>
      <path class="cls-1" d="M62.74,54.43c-.76,0-1.56.17-2.16-.49.08-.16.19-.25.38-.18.68,0,1.27.25,1.79.68Z"/>
      <path class="cls-1" d="M74.76,59.71c-.34-.1-.09-.3-.08-.46.51.35,1.22-.04,1.69.44,0,.07,0,.15,0,.22-.54-.07-1.08-.14-1.62-.21Z"/>
      <path class="cls-1" d="M60.95,53.76c-.13.06-.25.12-.38.18-.46-.06-1.05.16-1.22-.55.08,0,.17,0,.25.01.43.17.99-.13,1.34.36Z"/>
      <path class="cls-1" d="M66.57,55.87c-.56-.1-1.09-.28-1.46-.74.53.17,1.43-.39,1.46.74Z"/>
      <path class="cls-1" d="M29.85,31.95c1.29-1.74,2.15-3.92,4.34-4.7,2.73-.98,5.53-.94,8.56.03-4.72.86-8.95,2.28-12.9,4.67Z"/>
      <path class="cls-1" d="M39.99,29.77c-1.28,1.93-5.04,3.51-7.36,2.98-.71-.16-1.52.14-2.18-.41,1.44-.89,2.87-1.73,4.58-1.6.15-.28-.97-.71.15-.74.75-.02,1.36-.73,2.17-.42.87.23,1.78-.13,2.64.2Z"/>
      <path class="cls-1" d="M27.71,9.4c-.29,1.69-.88,3.29-1.69,4.98.89-.43,1.3-1.16,1.91-1.64.36-.29.56-.3.52.24-.9.72-1.81,1.45-2.71,2.17,1.58-.69,3.07-1.55,4.87-1.13,0,.05.01.11.02.16-1.34.01-2.59.31-3.65,1.19-1.32.41-2.06,1.73-3.51,2.3.26-.62.88-.9.51-1.58-.19-.35.29-.77.57-1.06,1.71-1.81,2.52-4.02,2.92-6.42.28.21.06.56.23.8Z"/>
      <path class="cls-1" d="M30.17,35.98c-.29.29.11.6-.01.89-1.75-1.04-3.41-2.22-4.96-3.52-.52-.44-.54-.19-.55.26l.02-.02c-1.21-.92-2.47-1.77-3.6-2.78-.45-.4-1.09-.34-1.44-.83-.21-.55.09-.6.51-.51.38.08.64.44,1.04.49,1.4.89,2.8,1.79,4.2,2.68.09.07.23.09.26.24,1.1,1.25,2.66,1.81,4.03,2.65.19.12.35.3.52.45Z"/>
      <path class="cls-1" d="M21.17,29.96c-.38.08-.68-.11-.99-.27-.33-.17-.51-.09-.56.28-.48.04-.72-.48-1.17-.49-.16-.52-.66-.62-1.05-.87-1.63-.25-3.15-.88-4.74-1.3-1.19-.32-2.32-.71-3.57-.61-.33.03-.7-.07-.96-.36.66-.05,1.32-.07,1.91-.42.96.5,2.03.41,3.05.58,2.98.49,5.66,1.67,8.08,3.45Z"/>
      <path class="cls-1" d="M27.71,9.4c-.25-.22-.17-.53-.23-.8.24-3.07,2.69-6.34,5.37-6.98-.61,1.07-1.4,1.85-2.13,2.66-.48.53-.9,1.11-1.4,1.59-.9.86-1.45,1.9-1.51,3.29-.03.08-.06.16-.09.23Z"/>
      <path class="cls-1" d="M26.5,2.88c.58-.79,1.23-1.51,2.05-2.03.22-.14.58-.47.83-.14.25.32-.1.55-.34.76-1.7,1.45-2.62,3.27-2.69,5.51.06.24.21.52-.25.5-.02-.38-.04-.76-.06-1.14-.34-1.22.26-2.31.45-3.46Z"/>
      <path class="cls-1" d="M39.99,29.77c-.88-.11-1.79.22-2.64-.2h2.6c-.81-.46-1.38-.19-2.11-.38,1.48-.76,2.96-.91,4.42-1.18-.75.58-1.51,1.17-2.26,1.75Z"/>
      <path class="cls-1" d="M22.62,17.6c-.82,1.45-.28,1.51,1,.99-1.05.97-1.71,1.79-3.01,1.46.51-.79.85-1.65,2.02-2.45Z"/>
      <path class="cls-1" d="M26.5,2.88c.39.97-.37,1.82-.31,2.77.01.23-.1.46-.15.69-.96-1.3-.11-2.36.45-3.46Z"/>
      <path class="cls-1" d="M25.62,32.88c-.09-.08-.17-.16-.26-.24.16-.13-.13-.61.27-.47,1.11.38,2.21.22,3.33.06-1,.83-2.26.32-3.35.66Z"/>
      <path class="cls-1" d="M14.35,24.48c0-.08,0-.16,0-.24,1.13-.71,2.29-1.34,3.6-1.67l-.02-.02c-.98,1.04-2.31,1.42-3.58,1.92Z"/>
      <path class="cls-1" d="M26.11,7.47c.08-.17.16-.34.25-.5.21.85.42,1.7.64,2.55-.08.03-.15.05-.23.08-.22-.71-.44-1.42-.66-2.13Z"/>
      <path class="cls-1" d="M17.95,22.58c.35-.8,1.16-.93,1.83-1.26-.38.76-1.11,1.01-1.85,1.25,0,0,.02.02.02.02Z"/>
      <path class="cls-1" d="M24.64,33.61c.67.51.98,1.2.94,2.04-.28-.7-.85-1.27-.92-2.06,0,0-.02.02-.02.02Z"/>
      <path class="cls-1" d="M17.4,28.62c.49.12,1.42-.3,1.05.87-.37-.26-1.03-.18-1.05-.87Z"/>
      <path class="cls-1" d="M5.21,26.84c-.02-.25-.53-.46-.27-.62.4-.26.79,0,1.02.41-.18.33-.47.27-.75.21Z"/>
      <path class="cls-1" d="M75.16,72.85c-.21,1.03-.63,1.99-1.04,2.96-.2.3-.28.8-.75.75-.24-.03-.12-.38-.1-.59,1.15-.82,1.17-2.15,1.48-3.35.14.08.27.16.41.24Z"/>
      <path class="cls-1" d="M53.44,51.55c.32.22.74.31.92.71-.37-.09-.76.53-1.12-.06-.2-.32-.06-.5.21-.65Z"/>
      <path class="cls-1" d="M54.2,52.7c.68.29,1.03.81,1.53,1.63-.64-.68-1.07-1.14-1.53-1.63Z"/>
      <path class="cls-1" d="M28.89,13.56c1.48-.46,3.02-.48,4.54-.7,1.98-.29,3.57-1.25,4.86-2.74.54-.62,1.06-1.27,1.61-1.89.19-.21.38-.58.75-.41.38.18.2.49.11.81-.57,2.11-2.06,3.38-3.87,4.38-.33-.03-.66.27-.99-.02-.4-.03-.77.08-1.15.22-.95.34-1.89.68-2.96.29-.93-.34-1.91.5-2.89.04,0,0-.02.02-.02.02Z"/>
      <path class="cls-1" d="M34.04,14.81c1.09.39,1.88.6,2.6.95,1.87.91,3.64.42,5.37-.37.38-.18.79-.45,1.03-.06.23.36.09.86-.36,1.14-1.47.94-2.95,1.63-4.74.71-1.25-.65-2.63-1.06-3.91-2.36Z"/>
      <path class="cls-1" d="M32.8,14.9c2.51,1.39,2.9,3.61,1.36,7.91-.81-.63-1.21-1.29-.94-2.4.44-1.8.76-3.65-.69-5.23-.05-.23.01-.35.27-.27Z"/>
      <path class="cls-1" d="M35.9,13c.33-.01.66-.26.99.02-.53.42-1.15.58-1.8.67-.1-.7.71-.26.81-.7Z"/>
      <path class="cls-1" d="M32.8,14.9c-.09.09-.18.18-.27.27-.49-.6-1.34-.53-1.9-1-.03-.05-.04-.1-.02-.16.73.3,1.6.25,2.19.89Z"/>
      <path class="cls-1" d="M83.09,82.84l-.04-.35c.55.14.59.66.81,1.13-.64-.02-1.23-.08-1.77-.41.11-.02.23-.03.34-.05.16-.23.44-.2.65-.32Z"/>
      <path class="cls-1" d="M29.27,12.06c.35-.69.98-1.06,1.59-1.31,1.87-.75,3.63-1.66,5.28-2.81.22-.15.46-.59.78-.18.25.33-.08.6-.27.81-.77.87-1.72,1.43-2.84,1.77-1.54.47-3.1.89-4.52,1.72Z"/>
      <path class="cls-1" d="M89.02,82.44c-.29.21-.59.41-.64.81.14,1.07-.68,1.7-1.21,2.39-1.12,1.47-2.05,3.01-2.32,4.85-.21,1.42-.26,2.85.25,4.23.16.43.45.96,1.01.83.5-.12.66-.65.71-1.14.01-.15-.08-.31-.08-.46-.02-1.77-.26-3.53.2-5.31.28-1.1,1.14-1.9,1.31-3.02-.02-.99.84-1.6,1.08-2.47v.02c.1-.33,0-.57-.3-.73ZM86.18,94.99c-1.71-1.89-.98-6.58,1.25-8.64-1.8,2.61-1.13,5.6-1.25,8.64Z"/>
      <path class="cls-1" d="M35.3,30.8c.91-.2,1.52.26,2.2.28-.72.26-1.36.02-2.2-.28Z"/>
      <g>
        <path class="cls-1" d="M28.76,47.42c-.77,1.91-1.67,3.75-2.87,5.44,0,0,0,0,0,0,.14.07.26.15.18.33,1.22-1.72,2.39-3.48,3.09-5.49-.25,0-.35-.13-.4-.29Z"/>
        <path class="cls-1" d="M56.34,51.5c-4.27-1.27-8.17-3.25-11.72-5.95-3.87-2.94-7.57-6.12-11.75-8.65-1.85-1.12-3.67-2.28-5.63-3.51,1.27-.37,2.39-.72,3.52-.41,3.21.9,6.04.18,8.66-1.79,1.46-1.11,2.64-2.56,4.27-3.46.57-.31.37-.6-.09-.82-.86-.43-1.82-.52-2.74-.68-4.15-.73-8.08-.1-10.76,4.06-.96,1.49-2.23,2.04-3.67,1.62-.82-.24-1.64-.57-2.38-1.01-3.04-1.81-5.99-3.78-9.49-4.66-.41-.1-.93-.2-1.15-.73.68-.26,1.36-.44,2-.77,2.64-1.39,5.13-3.01,7.51-4.82.7-.53.95-1.24,1.43-1.86.89-1.15,2.13-1.94,3.38-2.68-.17-.21-.41-.25-.66-.25-1.27.19-2.02,1.17-2.84,1.89.06-.13.09-.31.09-.47.02-.73.38-1.29.83-1.8,1.53-1.74,2.28-3.79,2.45-6.07.02-.11.04-.2.06-.3-.03.25-.05.5-.03.76.13.22.3.36.57.27.37-1.81,1.36-3.27,2.59-4.6.78-.84,1.54-1.71,2.27-2.59.29-.35.41-.87.08-1.2-.29-.29-.77-.07-1.08.14-2.02,1.36-3.88,2.86-4.54,5.37-.09.36-.14.7-.67.72-.08-1.41.24-2.69,1.04-3.81.53-.73,1.03-1.5,1.82-2.01.33-.21.59-.6.4-1.03-.24-.53-.78-.39-1.16-.3-.4.1-.79.37-1.12.64-1.75,1.49-2.95,3.25-2.56,5.77-.43-.75-1.1-1.18-1.64-1.74-.22-.24-.4-.3-.68-.04-.44.42.08.43.22.53.29.19.51.41.68.74-.64-.02-1.05-.99-1.78-.32.3.25.83-.06.95.49-.58.08-1.26-.5-1.74.35.98-.01,1.89.07,2.95.83-2.03-.28-3.22.58-4.25,1.91-.33.43-.95.71-1.61.64-.31-.03-.66-.09-.78.34,1.54.29,1.92.18,3.33-1.35,1.36-1.48,3.19-1.25,4.55-.17,1.1.88,1.15,2.13.21,3.76-1.35,2.35-3.23,4.29-5.02,6.29-.59.65-.63,1.55-1.39,2.13-1.69,1.29-3.6,2.11-5.55,2.86-1.15.45-2.31.9-3.66,1,4.05-4.52,4.72-7.39,3.61-10.71-.48.2-.33.64-.26.93.56,2.32.05,4.4-1.28,6.32-.18.25-.27.81-.65.61-.48-.25.02-.59.13-.89.04-.11.06-.23.09-.34.11-.26-.02-.3-.24-.26-.05.01-.07.05-.05.1-.01.04-.04.1-.04.1.15.06.04.08-.09.05-.44-.08.09-.85-.56-.74-.58.51.47,1.17-.17,1.7-.46-.77-.91-1.55-1.38-2.32-.11-.17-.18-.52-.5-.28-.21.16-.05.33.06.5.35.57.68,1.15,1.01,1.74.54.96.38,1.69-.52,2.41-1.35,1.09-2.98,1.14-4.53,1.54-.94.24-2.07-.28-2.82.69.23.29.58.3.88.27,1.76-.13,3.57-.08,5.15-.88-.04.07-.05.16-.01.28.17.52.75.33,1.16.25.57-.11,1.14-.23,1.7-.36-.27.1-.53.23-.78.41.03.3.15.45.32.54.18.04.36.08.54.12.06,0,.12,0,.19.01,3.63.29,6.96,1.38,9.92,3.55.5.23.94.57,1.4.87.97.65,1.87,1.44,3.04,1.76.22-.12.39-.25.71-.26.15,0,.3,0,.45.02-.32.02-.64.1-.94.29.02.36.17.61.37.82-.15-.12-.31-.23-.46-.35-.36-.27-.83-.66-.93.23.02.02.03.05.04.07-1.24-1.78-3.08-2.79-4.92-3.79-.41-.15-.76-.41-1.17-.56-.5-.12-.78-.55-1.16-.84-2.16-.66-4.31-1.35-6.52-1.82-.2-.01-.39-.04-.54-.12-.01,0-.02,0-.03,0-.69-.14-1.43.06-2.1-.24-.75,0-1.48.06-2.21.24-.26.1-.53.15-.81.19-.7.37-1.52.08-2.24.38-.21.06.01.39-.21.38-.28-.01-.59-.08-.59-.48-.04-.01-.08-.02-.11-.04-.81-.45-1.29.05-1.76.61-.12.15-.37.29-.16.47.48.42.95.63,1.7.51,1.26-.19,2.42-.77,3.7-.82,3.24-.12,6.45-.03,9.57,1.09,3.55,1.28,6.71,3.11,9.27,5.9,1.4,1.53,1.38,3.15.05,4.77-.63.77-1.19,1.53-1.46,2.54-.68,2.58-.06,4.99.85,7.36.43,1.11.9,2.2,1.01,3.39.06.71-.28,1.43-.02,2.27.66-.53.95-1.18,1.33-1.75-.09-.08-.17-.15-.26-.23-.16-.08-.35.36-.36.11-.03-2.56-1.82-4.57-2.16-7.03-.33-2.37-.36-4.64,1.51-6.5.4-.4.66-.94,1.06-1.53.02,1.48.79,2.82.28,4.24,0,.06,0,.13.01.19.23.04.55-.04.43.46-.1.41-.04.86-.05,1.29,0,.2.08.45,0,.59-.93,1.47.26,3.22-.65,4.71-.14.23.15.73.31,1.1.14-1.31.45-2.6.73-3.84.33-1.44-.39-2.9.35-4.25.07-.12-.07-.37-.13-.55-.14-.44-.13-.43.12-1.14.04-.12-.02-.3-.08-.44-.21-.45-.45-.88-.61-1.35,1.86,2.63,2.66,3.68,2.38,7.93.07.24-.06.55.22.73.93-3.26.14-6.17-1.82-8.82-.79-1.07-.92-2.29-1.05-3.57,3.55,1.76,6.62,4.15,9.74,6.44,2.35,1.73,4.86,3.28,6.88,5.43,1,1.07,1.05,2.09-.01,3.08-2.7,2.51-3.21,5.45-1.98,8.84.69,1.9,1.68,3.7,2.02,6.07,1.46-2.43,3.12-4.4,4.05-6.76,1.43-3.65-.56-6.67-2.11-9.75l3.72,1.94c.18-.4-.13-.62-.34-.87-.29-.24-.58-.48-.86-.73-.16,0-.31-.1-.47-.11-.4-.24-.72-.54-1.04-.88-.34-.37-.64-1.21-1.48-.65-.07.05-.34-.15-.48-.28-1-.96-1.94-1.97-2.99-2.87-.73-.63-1.62-1.04-2.38-1.7-2.25-1.97-4.97-3.31-7.24-5.27-.34-.29-.86,0-1.16-.39-.06-.17-.28-.35-.32-.52-1.13-.71-2.21-1.49-3.28-2.29.16.1.32.19.46.3.92.68,2.04,1.03,2.96,1.72.05-.03.11-.07.2-.1,3.43,2,6.74,4.14,9.76,6.75,2.04,1.76,4.35,3.19,6.49,4.83,2.06,1.57,4.54,2.31,6.78,3.54.08.05.13.16.2.24-.09.03-.17.04-.26.06.01,0,.03.01.04.02.1.05.21.09.32.13.89.39,1.88.4,2.78.75.63.09,1.26.09,1.88-.04.36-.21.97-.06.98-.74-.93-.21-1.86.27-2.8,0ZM32.3,2.09c-.88.86-1.5,1.68-2.18,2.45-.53.59-1.41.81-1.7,1.52.86-1.8,2.27-3.11,3.88-3.97ZM28.39,6.1c-.24.59-.48,1.18-.63,1.81.15-.65.36-1.25.63-1.81ZM19.12,21.81c-.38.27-.76.48-1.11.72.35-.25.71-.48,1.11-.72ZM14.3,24.36c1.1-.48,2.17-1.02,3.24-1.56-1.08.6-2.22,1.09-3.32,1.65-.22.1-.45.17-.66.28-.48.24-1,.35-1.52.45.77-.22,1.52-.47,2.26-.81ZM24.77,33.81c.26.42.48.87.7,1.32-.23-.44-.44-.89-.7-1.32ZM44.27,49.11c-.73,1.58.06,3.19-.25,4.81-.12.62-.18,1.4-.04,2.15.16.85-.28,1.76-.46,2.61-.18.84.07,1.39.3,2.05.09-.66.17-1.33.26-1.99.03-.18.07-.44.31-.37.11.03.15.31.3.48-.41-2.76.36-5.48-.03-8.23,4.14,4.83,1.63,8.97-1.3,13.01-.16-.13.04-.38-.02-.59.02-.14.04-.27.07-.41-.09.14-.2.27-.37.37-.87-2.12-1.9-4.17-2.16-6.5-.25-2.16.32-3.96,1.95-5.4.63-.55,1.24-1.1,1.44-2Z"/>
        <path class="cls-1" d="M43.41,62.64c.24-.38.27-.88.53-1.25.06-.24.07-.47-.12-.66,0,.22-.01.43-.02.65-.21.4-.31.83-.39,1.26Z"/>
        <path class="cls-1" d="M24.03,47.54c.48,1.7,1.47,3.22,1.8,4.98.06-.28.21-.53.37-.74.97-1.27,1.56-2.72,2.14-4.18.08-.2.14-.44.33-.55.21-2.41-.25-4.68-1.38-6.8.27.69.11,1.47.11,2.12,0,2.52-.01,5.08-.75,7.54-.1.32-.03.88-.44.87-.53-.02-.53-.61-.59-1.03-.07-.49.21-.93.23-1.41.07-1.44.28-2.89.32-4.31.01-.52,0-1.05-.03-1.58-.02,0-.05,0-.07-.02.03-.06.04-.12.06-.17-.07-1.11-.2-2.24-.38-3.36-2.14,2.13-3.08,3.79-1.72,8.64ZM24.39,40.97c.16-.73.69-.99,1.12-1.3-.14.58-.54.92-1.12,1.3Z"/>
        <path class="cls-1" d="M25.83,52.51c-.03.15-.05.3-.01.46.03-.04.05-.08.08-.12-.02-.12-.04-.23-.06-.34Z"/>
        <path class="cls-1" d="M28.67,47.05c.03.12.05.25.09.37.06-.15.13-.29.18-.44-.12,0-.2.03-.27.07,0,0,0,0,0,0Z"/>
      </g>
      <path class="cls-1" d="M34.25,20.3v-3.45c.48,1.34.31,2.4,0,3.45Z"/>
      <path class="cls-1" d="M83.09,82.84q.08.27-.65.32c-.42-.48-1.04-.79-1.28-1.44.76.17,1.23.84,1.93,1.12Z"/>
      <g>
        <path class="cls-1" d="M63,46.67c.07.11.13.22.2.33.02-.03.03-.06.05-.09-.08-.08-.16-.16-.25-.23Z"/>
        <path class="cls-1" d="M65.76,36.07c-.11-.23-.31-.51-.63-.43-.29.07-.19.38-.25.6-.34,1.11-.99,2.03-1.75,2.9-2.48,2.83-4.46,5.84-2.77,9.84.39.91,0,1.51-.58,2.1-.17.91-1.02.76-1.6,1.05-.41.07-.84-.07-1.23.11-.27.94.73.64,1.02,1.05.44.5.97-.37,1.41.1.08.17.16.18.25.01,0-.15,0-.29,0-.44.04-.22-.72-.37-.05-.63.92-.36,1.69-1.07,2.58-1.36,3.28-1.09,4.84-3.45,5.31-6.69.42-2.93-.47-5.61-1.7-8.21ZM66.84,44.41c-.41,2.79-1.79,4.73-4.29,5.93-.21.1-.44.17-.67.23-.11.03-.23-.02-.5-.04,1.17-.85,1.58-2.23,2.79-2.83-.17-.59-.92.6-.89-.4v-.04s-.03.02-.04.03c.01,0,.03,0,.04,0,0,0-.04,0-.04,0,0,0,0,0,0,0-.28-.01-.42-.14-.55-.43-.13-.28-.13.1-.2.15-.03.72.19,1.49-.51,2.22-.19-.78-.34-1.46-.57-2.41-.41,1.39.78,2.77-.65,3.84.19-.98.15-1.81-.16-2.63-1.02-2.78.18-5.06,1.74-7.22.45-.62.9-1.29,1.58-1.72.53-.6.68-1.5,1.45-1.92.1-.04-.02-.68.21-.18,1.09,2.34,1.66,4.76,1.28,7.41Z"/>
        <path class="cls-1" d="M64.9,43.55c.05-.11.11-.22.15-.34.03-.11.04-.23.06-.34-.06.21-.13.41-.2.62,0,.02,0,.04-.01.06Z"/>
        <path class="cls-1" d="M64.14,39.09c.2.17.33.35.43.54-.07-.2-.18-.4-.34-.57-.12-.08-.22-.07-.32.03h.11s.11,0,.11,0Z"/>
        <path class="cls-1" d="M64.98,41.47c-.07-.15-.12-.3-.16-.46.01.23.02.46.05.68.04-.07.07-.15.1-.23Z"/>
        <path class="cls-1" d="M65.23,37.91s0-.05-.01-.07c.08.96.08,1.91.02,2.87.21-.91.13-1.85,0-2.79Z"/>
        <path class="cls-1" d="M65.2,37.6c.01-.06.05-.12.15-.16,0-.09,0-.17,0-.26-.08.1-.14.21-.16.33,0,.03,0,.06,0,.09Z"/>
        <path class="cls-1" d="M63,46.67c-.53-.87-.94-1.77-.91-2.85-.28,1.13-.14,2.19.38,3.2-.1-.4-.18-.81-.24-1.21.16.36.47.61.77.87ZM62.13,45.04c-.03-.29-.07-.59-.09-.87.13.25.11.56.09.87Z"/>
        <path class="cls-1" d="M64.85,43.11c-.36.19-.34.59-.43.89-.18.63-.49.2-.75.14-.05.94.09,1.9-.42,2.76.03.03.07.07.1.1.08-.08.14-.16.21-.24.16-.24.29-.5.39-.77.14-.55.04-1.14-.18-1.75-.01-.02-.02-.04-.02-.07.26.31.5.35.73.11.11-.34.23-.66.41-.97-.01-.07-.02-.15-.03-.22Z"/>
        <path class="cls-1" d="M63.65,44.14s0,0,0,0h0s.01,0,.02,0c0,0,0-.02,0-.02,0,0-.02.02-.02.02Z"/>
        <path class="cls-1" d="M64.9,43.55c-.07.16-.14.33-.22.49-.06.11-.13.19-.2.26-.18.57-.31,1.15-.53,1.7-.07.27-.2.52-.39.77-.08.13-.17.25-.28.37,0,0,0,.01,0,.02,0,.01,0,.02,0,.03,0,0,0,0,0,0,0,.02,0,.04,0,.06,1.36-.88,1.27-2.39,1.62-3.71Z"/>
        <polygon class="cls-1" points="63.23 47.3 63.23 47.3 63.23 47.3 63.23 47.3"/>
        <path class="cls-1" d="M63.28,47.2s0-.03,0-.04c0-.06-.02-.11-.08-.16l.03.3s0,0,0,0c.02,0,.03-.04.04-.1Z"/>
        <polygon class="cls-1" points="64.87 41.72 64.87 41.73 64.87 41.73 64.87 41.72"/>
        <path class="cls-1" d="M65.12,41.96s0-.03,0-.04c-.01-.07-.04-.13-.05-.2-.04.02-.1.03-.18,0,0,0,0,.01,0,.02l-.02-.02v1.38s.04.07.06.11c.08-.42.14-.84.19-1.26Z"/>
        <path class="cls-1" d="M65.23,41.42c-.02.08-.05.15-.08.21-.01.11-.02.22-.04.33.05.31.04.61-.01.91.54-1.78.75-3.58.24-5.43.15,1.33.26,2.66-.12,3.98Z"/>
        <path class="cls-1" d="M65.22,37.84c0-.08,0-.16-.01-.24-.02.07,0,.15.01.24Z"/>
        <path class="cls-1" d="M65.06,41.72s.07-.05.09-.09c.03-.31.06-.61.08-.92-.06.26-.14.51-.25.77.01.03.02.06.04.09.02.05.03.1.04.16Z"/>
        <path class="cls-1" d="M64.89,43.33c0,.05.02.11.02.16.07-.1.06-.19.01-.27,0,.02,0,.04,0,.05-.01.02-.02.04-.03.06Z"/>
        <path class="cls-1" d="M64.14,39.09c.3.86.1,1.86.73,2.63,0,0,0,0,0,0-.39-.83-.1-1.86-.74-2.62Z"/>
        <path class="cls-1" d="M64.56,39.63c.15.44.16.92.26,1.38-.02-.48-.05-.96-.26-1.38Z"/>
        <path class="cls-1" d="M64.87,41.73s0,.01.01.02c0,0,0-.01,0-.02,0,0,0,0,0,0Z"/>
        <path class="cls-1" d="M64.87,41.71s0,0,0,.01c0,0,0,0,0,0,0,0,0-.02,0-.03,0,0,0,.01,0,.02Z"/>
        <path class="cls-1" d="M63.32,42.1c-.21.73.03,1.36.34,1.99.18-.72-.34-1.3-.34-1.99ZM63.43,43.03c.07.26.13.53.18.81-.09-.28-.14-.55-.18-.81Z"/>
        <path class="cls-1" d="M63.66,44.09s0,.03,0,.05l.02-.02s0-.02-.01-.03Z"/>
      </g>
      <path class="cls-1" d="M89.38,80.27c-.04-.14-.09-.29-.19-.65,0,0-.02,0-.02,0-.16,1.69-.46,3.11-1.78,4.04-.65.46-1.31.85-2.16.66-1.08.52-2.33.66-3.3,1.48-1.31,1.1-1.69,2.61-1.96,4.18-.14.78-.23,1.57-.38,2.35-.05.27-.19.59-.48.59-.17,0-.41-.27-.5-.47-.76-1.83-.14-5.19,1.78-6.32,1.41-.83,2.62-1.96,4.37-2,2.95-.87,3.78-1.89,3.76-4.55-.18-.14-.23-.44-.52-.45.2,2-.36,3.18-1.74,3.61-1.39.43-3.07-.3-3.86-1.84-.7-1.37-1.67-2.48-2.76-3.53-.23-.22-.35-.56-.74-.41-.34.14-.42.48-.42.8-.04,2.12.54,4,2.25,5.36.47.37,1.06.59,1.77.98-.78.25-1.28.63-1.81.95-.6.36-1.02.89-1.48,1.37-1.3,1.33-1.91,4.73-1.15,6.26.2.4.35.93.97.87.61-.05.82-.45.97-1.01.26-.96.36-1.94.5-2.91.26-1.88,1.17-3.32,2.87-4.2-.85.99-1.6,2.04-2,3.3-.45,1.44-.55,2.86.32,4.19.24.37.57.73,1.07.6.44-.11.36-.55.39-.9.03-.39.09-.79.1-1.18.09-2.87.86-5.37,3.63-6.83.59-.31,1.13-.74,1.49-1.34.35-.26.73-.47.93-.89.25-.64.25-1.31.24-1.98-.05,0-.11-.04-.16-.11ZM82.41,83.18c-.1.07-.2.08-.31.02-2-.79-3.22-2.87-3.04-5.29.52.36.5.99.85,1.39.04-.23.08-.45.14-.85,1.06,1.42,2.03,2.73,3.01,4.04.07.07.09.13.06.19-.03.06-.05.09-.08.09-.35.08-.61,0-.83-.15.11.16.19.34.2.57ZM82.81,91.58c0,.4.22,1.04-.35,1.1-.54.06-.69-.62-.78-1.04-.59-2.94,1.16-5.93,4.19-6.89-2.5,1.74-3.04,4.17-3.07,6.83Z"/>
      <g>
        <path class="cls-1" d="M113.57,56.58c-.4-.17-.87-.27-1.22.04-.81.74-1.76.55-2.72.54-1.64-.01-2.82-1.12-4.29-1.68,1.33-.9,2.56-1.85,3.02-3.43.14-.47.4-1.09-.23-1.5-.67-.44-.87.27-1.17.55-1.13,1.08-2.15,2.41-3.88,2.42-1.28.01-2.56-.23-3.84-.36,0-.04,0-.09,0-.13,1.15-.12,2.29-.24,3.44-.36-.09-.08-.18-.16-.27-.24h0c-.25-.21-.37-.54-.86-.3-.87.42-1.83.42-2.81.23,2.4-.34,4.59-1.15,6.35-2.86.51-.5.96-1.05,1.47-1.55.13-.13.22-.52.53-.28.27.21.02.42-.07.62-.68,1.48-1.9,2.47-3.12,3.46.09.09.19.18.28.28,1.65-.91,2.77-2.28,3.46-4.03.14-.35.24-.73-.11-.98-.36-.25-.73,0-.98.23-.46.43-.85.94-1.26,1.42-1.56,1.85-4.92,3.34-7.11,3.18,1.34-.8,2.85-1.37,4.21-2.27,1.5-1,2.11-2.73,3.47-3.82.2-.16.26-.43.02-.62-.21-.17-.38-.4-.72-.33-.35.08-.44.42-.45.62-.12,1.67-1.25,2.63-2.41,3.59-1.58,1.31-3.66,1.76-5.31,3.2.12-.8.7-1.05,1.12-1.42,1.9-1.64,3.88-3.21,4.39-5.89.02-.13.17-.26.3-.34.36-.24.82-.4.42-.98-.23-.33-.51-.55-.88-.44-.49.15-.44.64-.41,1.01.12,1.28-.43,2.32-1.14,3.28-1.18,1.61-2.75,2.85-4.31,4.06-.29.23-.61.65-1.14.37,1.09-1.34,2.18-2.65,3.23-4,.41-.53.74-1.13,1.08-1.71.27-.47.39-1.04,0-1.44-.49-.5-.97.02-1.35.28-.8.54-1.33,1.34-1.82,2.17-.63,1.06-.93,2.3-1.85,3.33.08-.35.16-.58.18-.81.15-2.21,1-4.13,2.46-5.78.6-.68,1.24-1.3,1.84-1.98.27-.31.37-.71.14-1.1-.27-.46-.7-.24-1.05-.16-.3.07-.61.21-.83.41-2.21,1.95-3.55,4.32-3.53,7.36,0,.97.14,1.97-.46,2.85.11.39-.21.78.01,1.17.15-.07.29-.14.44-.21,0,0,0,0,.01-.01,0,0,0,0,0,0,0,0,0,0,0,0,0,0,0,0,0,0,0-.01,0-.02,0-.03l.02.02s-.02,0-.02.01c.1.74-.31,1.31-.79,1.73-.4.35-.52.82-.83,1.18-.71.68-.73.71-.29.88,0,0,0,0,0-.01h0s.03-.01.05-.02c1.48-2.19,3.79-2.32,6.11-2.37.29,0,.72-.17,1.1.37-1.62.04-3.11.24-4.55.76-.93.34-1.71.97-2.66,1.24-.01.02-.02.03-.03.04-.01,0-.02,0-.03-.01-.42.75-1.52.18-1.91.98-.35.18-.73.69-1.07.15-.35-.57.1-.89.61-1.08,1.3-1.02,2.31-2.27,2.67-3.9.28-1.24-.41-2.23-1.11-3.16-.81-1.08-1.9-2-1.98-3.5h0c-.1-.09-.2-.19-.3-.28-.85-2.68.54-5.1,2.14-6.48.27-.23.68-.64,1.04-.36.39.31.18.79-.05,1.19-.63,1.09-1.34,2.14-1.83,3.31-.62,1.47-.49,3.19.36,4.05-.66-2.41.02-4.51,1.5-6.43.36-.47.58-1.03.72-1.62.1-.42.15-.82-.25-1.04-.32-.18-.65-.28-1.1-.03-1.37.74-2.14,1.94-2.75,3.29-.95,2.11-.46,4.14.51,6.28-1.01-.26-1.84-.57-2.75-.37-1.78.39-3.21,1.28-4.26,2.77-.2.28-.41.63-.13.99.22.28.47.05.73.04,1.83-.08,3.5-.8,5.23-1.26,1.23-.33,2.93.43,3.41,1.36.58,1.13.2,2.25-.76,3.45-.78.97-1.92,1.31-2.82,2.05-1.64,1.37-3.36,2.52-5.59,2.88-3.71.6-7.04-.35-10.37-1.9,3.17-1.35,5.99-2.83,7.2-6.31,1.14-3.28,1.26-6.43-.33-9.94-.72,1.99-1.84,3.31-2.89,4.69-1.81,2.38-2.72,5.01-2.24,8.02.08.53.02,1-.37,1.4-.78.82-2.53,1.32-3.51.82-1.53-.77-3.17-1.19-4.77-1.73-1.73-.6-3.47-1.26-5.32-1.45-.14.15-.15.32-.08.5.36.37.88.23,1.31.39.58.26,1.19.47,1.79.69.1.04.2.07.31.1.7.08,1.36.28,1.99.59.1.04.2.08.3.1.45.07.91.12,1.21.53.09.06.18.11.28.13,1.19.14,2.15.92,3.31,1.15.11-.02.22-.04.33-.07-.04.05-.08.1-.1.19.04.62.54.78.99,1,1.17.3,2.22.93,3.36,1.28.56.23,1.19.16,1.75.38,0,0,0,0,0,0-.06-.05-.08-.1-.06-.15.02-.05.04-.08.06-.08,2.53.53,5.06.51,7.56-.25-.81.74-2.44,1.04-4.68,1-.4,0-.86-.27-1.19.19.47-.08.92.13,1.39.16,2.03.14,3.95-.39,5.91-.68,1.56-.23,3.28-.52,4.36-1.6,1.11-1.12,2.43-1.81,3.71-2.56,2.54-1.47,5.24-1.99,7.98-.36,1.32.79,1.66,1.86,1.12,3.32-.4,1.08-1.15,1.79-2.18,2.19-.44.17-.68.47-.71.85-.04.45.37.67.72.85,1.02.5,2.32.03,3.13-.98,1.12-1.39.91-3.02.92-4.78.44.53.6,1.01.71,1.49.44,1.97,1.77,3.41,2.94,4.94.32.42.78.33,1.2.25.23-.04.41-.28.39-.54-.03-.42-.39-.49-.71-.67-.89-.49-1.9-.89-2.36-1.91-.55-1.2-1.04-2.42-1.64-3.81,2.83,2.6,2.88,2.68,6.35,3.74.52.16.85.05,1.16-.3.24-.28.03-.5-.16-.72-.33-.39-.59-.33-1-.03-.41.3-1,.31-1.49.1-1.46-.61-3.02-1.34-4.28-3.53,2.29,1.83,4.73,1.71,7.15,1.72.44,0,.89-.09,1.08-.58.09-.23.09-.5-.18-.62ZM93.97,51.86c.1-.43.19-.85.25-1.29-.04.44-.13.87-.25,1.29ZM98.6,41.2c.09.65-.23.95-.58,1.3-1.83,1.81-3.31,3.82-3.52,6.52-.94-2.29,1.42-6.87,4.1-7.81ZM95.96,49.64s0,0,0,0c-.45-.52.5-.38.36-.76.16-1.52,1.08-2.53,2.27-3.36.22-.15.47-.39.72-.12.24.26,0,.5-.11.75-.72,1.52-1.92,2.67-2.95,3.96-.44.63-.88,1.25-1.32,1.88.15-.83.38-1.61,1.04-2.17-.01-.06-.01-.12,0-.18ZM89.22,48.81c-2.24.19-4.2,1.81-6.57,1.18,1.48-2.26,4.59-3.09,6.74-1.58-1.17-.23-2.16-.46-3.36.29,1.26-.2,2.21,0,3.19.12ZM79.34,46.25c.11,2.87-.53,5.57-2.62,7.68-.58.58-1.17,1.35-2.13,1.39-.05.03-.1.07-.15.1.04-.04.08-.07.12-.1-.04,0-.07,0-.11,0-.01,0-.02.01-.03.02h-.02s.03-.02.05-.02c.14-.07.27-.14.38-.23.02-.02.05-.04.07-.06.85-.73.96-2.02,1.83-2.74.36-.3-.11-.59.05-.97.31-.76.91-1.2,1.57-1.72-.01-.02,0-.04-.02-.05-.02-.02-.03-.04-.05-.06-.32-.01-.39.37-.76.16.69-2.14,1.31-4.41,1.05-6.82.82,1.03.73,2.27.77,3.42ZM78.21,43.38c.28,1.79-.23,3.34-.7,4.89-.03.1-.15-.18-.22-.29-.07.08-.15.16-.22.24.25,1.39-.48,2.51-1,3.69-.52-.28-.29-.88-.62-1.28.17,1.56.36,3.11-1.18,4.05-.57-2.33-1.13-4.81,3.93-11.3ZM73.22,56.2c-.57.3-1.18.52-1.83.65.63-.16,1.25-.36,1.83-.65ZM86.76,59.12c-.35.05-.08-.23-.08-.37,0,0-.01,0-.02,0h0s0,0,0,0h0,0s0-.02,0-.03c-.49-.43-.75.5-1.25.18.29-.36.58-.71,1.07-.83.62-.14.86-.86,1.54-1.08-.13.9-.77,1.16-1.35,1.48,0,.08,0,.16,0,.24,0,0,.01,0,.02.01h0s0,0,0,.01c.61.05,1.16-.62,1.93-.13-.68.19-1.25.42-1.84.5ZM103.39,61.21c-.56.92-1.42,1.17-2.43,1.13-.27-.01-.48-.16-.58-.35-.15-.3.14-.41.35-.5,2.11-.93,2.59-2.77,2.77-4.82.47,1.53.8,3.05-.11,4.54ZM103.68,54.9c-1.47-.14-2.91-.42-4.3-.96,1.56-.18,3.12.41,4.66-.03,1.59-.46,2.48-1.94,3.8-2.92.26,1.52-.73,2.87-2.71,3.92-.48.22-.97.73-1.44-.01ZM74.91,62.6c-.27-.83-.4-1.71-.94-2.44.74.33.93,1.13,1.45,1.65,0,.1-.02.2-.03.3-.11,0-.22,0-.33,0-.04.17.06.38-.16.49ZM78.52,63.53c-.81-.71-1.76-1.25-2.41-2.15.06-.02.07-.06.04-.12,1.11.38,1.73,1.37,2.58,2.07.02.17,0,.3-.22.19ZM108.45,88.08c-1.21-.35-2.24-1.1-3.49-1.38-1.33-.3-2.63.15-4.04.01.63-.35,1.16-.6,1.63-.93,1.55-1.05,3.2-1.5,5.04-.95.29.08.58.3.82-.09.17-.27.18-.53.02-.78-.18-.28-.5-.56-.78-.46-1.53.58-3.26.44-4.7,1.43-.9.62-1.81,1.34-3.1,1.49.26-.16.42-.27.58-.35,1.95-1.01,2.92-3.98,1.89-5.83-.44-.78-1.11-1.4-2.01-1.06-1.05.41-.47,1.22-.18,1.89.02.04.04.07.06.11.75,2.06-.4,4.33-2.25,4.33-1.37,0-2.66-.41-3.76-1.26-2.49-1.9-3.46-4.73-4.09-7.57-.3-1.34-.73-2.46-1.51-3.49-1.19-1.56-2.47-3.04-3.73-4.59.98.09,1.78.51,2.49,1.08,2.69,2.16,5.75,3.06,9.2,3.07,1.88,0,3.8.47,4.82,2.44.02.04.14.02.26.04.04-.09.12-.2.11-.29-.68-6.48-8.49-11.35-14.21-8.39-2.14,1.1-3.96.75-5.6-.76-1.69-1.56-3.1-3.39-4.85-4.89-.19-.42-.38-.83-.78-1.09-.5-.14-1-.28-1.54-.21.02.29.14.51.3.69-.21-.19-.42-.38-.65-.55-.39-.29-.75-.29-.66.38.05.1.11.19.19.28.57.39.66,1.28,1.48,1.42,2.1,1.35,3.9,3.04,5.44,4.99.62.78,1.25,1.51,2.1,2.09,1.76,1.19,2.86,3,3.56,4.88.64,1.71,1.11,3.53,1.49,5.35.31.03.17.59.58.49.67-.82-.29-1.79.24-2.78.35.8.48,1.58,1.18,2.01v-.02s.01.02.01.03c0,0,0,0,0,0,0,.02.01.04.02.06,0,0,0,0,0,0,.71,1.16,1.04,2.51,1.85,3.64,1.29,1.8,2.99,3.01,5,3.86.7.3,1.35.62,1.73,1.35.02.05.09.22.17.33.02.02.05.04.07.06,0,0,.01.02.02.02.1.05.21,0,.33-.39.06-.18.27.08.31.17.71,1.38,1.04,2.8.52,4.33-.1.3-.21.7-.59.63-.36-.07-.31-.49-.33-.81-.03-.51-.03-1.03-.11-1.53-.31-1.89-1.46-3.12-3.08-4.1-1.61-.97-3.26-1.93-4.42-3.52-.9-1.23-1.56-2.5-1.49-4.06-.04-.03-.1-.06-.17-.08-.46.34-.34.85-.37,1.31,0,.95.03,1.91-.3,2.83-.04.1-.08.21-.11.32-.02.64-.86,1.07-.49,1.82.47.38.14.77.04,1.17-.37,1.46-.8,2.92-.71,4.44.04.78.12,1.98,1.1,1.94.88-.04,1.02-1.15,1.03-2,0-2.28,0-4.56,0-6.84.12,0,.24-.02.36-.02.25,1.07.57,2.12.74,3.2.42,2.72,1.36,5.53-1,7.92-.25.25-.25.64-.03.88.19.2.5.45.84.23.3-.2.64-.44.51-.85-.11-.34-.23-.6,0-.97.4-.65.45-1.42.59-2.16.38-2.13-.27-4.16-.58-6.22-.1-.23.05-.59.14-.55.34.17.68.34,1.01.53-.09,0-.17.03-.24.17-.13.27.08.44.32.54.98,1.18,2.12,2.25,2.59,3.77.46,1.52.71,3.08.73,4.67,0,.46.1.91.66.98.47.06.6-.33.7-.66.68-2.28.58-5.41-1.46-7.31-.44-.41-1.04-.7-1.28-1.37,2.66,1.02,4.25,2.72,4.05,5.71-.04.54-.05,1.26.61,1.37.72.12.91-.6,1.15-1.14.67-1.47.24-2.93-.1-4.45,2.59.57,5.26.79,6.24,3.81.11.35.54.5.87.55.3.05.47-.3.52-.56.07-.39-.12-.73-.49-.86-.57-.2-.87-.67-1.23-1.08-1.47-1.63-3.53-1.9-5.52-2.42.83-.19,1.66-.42,2.47-.38,1.67.07,3.43.03,4.34,1.89.1.21.27.47.54.29.22-.15.63-.01.68-.38.04-.31.03-.75-.3-.84ZM75.49,60.69c.24.19.47.38.62.64-.2-.22-.41-.43-.62-.64ZM78.6,63.43c-.79-.73-1.59-1.44-2.46-2.07.91.6,1.68,1.37,2.5,2.07.09.07.16.16.24.23-.09-.08-.18-.16-.28-.23ZM98.35,69.41c-1.64.41-2.93-.26-4.28-.74.13-.51.6-.24.81-.49-.87-.42-1.86.55-2.74-.19.39-.35.97.03,1.25-.58-.9.1-1.76.32-2.65.12.26-.54.9-.42,1.55-.99-.92.28-1.55.41-2.08.81-.57.43-1.25.39-1.88.55-.73.18-1.15-.63-1.84-.31,3.97-2.49,8.51-1.63,11.86,1.82ZM85.48,68.07c1.24.03,2.38.39,3.44,1.01.2-.45-.29-.44-.37-.65,1.71-.47,2.9.39,4.09,1.48-.35-.41-.7-.81-1.06-1.22,1.64.38,3.37.57,4.4,2.56.04-.97-.61-1.15-.78-1.69,1.85.84,3.46,2.02,4.83,3.53.02,0,.04.01.06.02l-.02.03s-.03-.03-.04-.04c-2.01-.64-4.08-.83-6.19-.98-1.81-.13-3.51-.85-4.99-1.94-1.05-.77-2.12-1.48-3.36-1.88-.48-.1-.96-.21-1.71-.37.8-.53,1.25-.14,1.7.17ZM82.29,67.52c-.11-.23-.49-.32-.39-.65.04-.15.26-.27.36-.12.15.24.71.17.52.65-.14.36.28.38.37.62-.43.05-.69-.14-.86-.5ZM83.66,68.47c.37.36.95.5,1.24,1.33-.66-.49-1.13-.73-1.24-1.33ZM99.26,85.98c1.07-1.21,1.64-2.35,1.6-3.76-.02-.62-.09-1.18-.38-1.72-.11-.21-.3-.44-.05-.63.19-.14.42-.05.66.07,1.36.67,1.63,2.33.64,4.14-.29.05-.33-.08-.31-.23-.06.15-.12.31-.18.46-.49.61-.8,1.42-1.98,1.67ZM89.53,91.25c-.04.27-.08.69-.44.75-.4.06-.46-.34-.58-.63-.31-.81-.23-1.66-.07-2.46.26-1.28.68-2.53,1.03-3.8.28,2.07.35,4.11.05,6.14ZM97.02,94.63c-.05.22-.02.49-.5.47-.05-3.11-.74-6.02-2.98-8.36.06,0,.12,0,.18,0-.01-.01-.02-.02-.03-.03-.22-.23-.44-.45-.67-.66.27.19.52.42.73.69.03,0,.06,0,.09,0,2.68,1.97,3.93,4.52,3.17,7.87ZM85.49,68.28c0-.07,0-.14-.01-.2-.02,0-.04.02-.05.07-.02.05,0,.09.07.13ZM53.37,51.3s.01.02.02.02c0,0,0,0,.01,0l-.03-.03ZM76.18,63.28c-.31-.32-.7-.66-.79-1.17-.12-.09-.22-.08-.31.04,0,.05,0,.11,0,.16.22,3.44.74,6.9-.33,10.3.01.06.01.12.02.17.1.09.21.13.37.1,0-.01.01-.02.02-.04.38-1.8.9-3.54.87-5.45-.02-1.13.39-2.29-.15-3.45,3.41,3.35,1.57,8.81-1.75,11.86.01-.15.05-.29.08-.43-.01.01-.03.03-.04.05-.15.13-.27.28-.4.42-.09.09-.12.24-.27.28.02-.1.05-.21.06-.31-.09.05-.18.11-.28.14-.16-1.73-.3-3.46-.5-5.18-.26-2.2.55-4.11,1.57-5.95.4-.72.72-1.4.58-2.23.03-.09.06-.19.09-.28-.11-.82-.37-1.58-1.03-2.16l.02.02c-.8-.83-1.57-1.7-2.66-2.17-.36-.2-.79-.3-.95-.75-.09-.07-.2-.11-.32-.12-1.22-.31-2.31-.94-3.51-1.28-.35-.49-.98-.45-1.44-.72l.03.02c-.88,0-1.57-.65-2.42-.73l.03.02c-.68-.24-1.44-.2-2.05-.63-.39-.21-.98.11-1.22-.47-.43-.59-1.07-.1-1.58-.31-1.24.06-2.29-.58-3.42-.94-.33-.15-1.01.33-.96-.52-.01-.09-.06-.17-.12-.24-.86-.19-1.76-.21-2.58-.55-.4-.17-.78-.42-1.25-.32-.22.07-.42.18-.54.4.99.73,2.1,1.24,3.25,1.61,1.38.45,2.23,1.5,3.14,2.47,1.09,1.15.89,2.48.39,3.88-1.02,2.82-.35,5.35,1.25,7.84,1.29,1.99,3.51,3.29,4.06,5.96.3-.44.48-.65.61-.89,1.01-1.82,1.13-3.83,1.37-5.83.42-3.43-.74-6.12-3.52-8.12-1.48-1.06-3-2.07-3.42-4.06.32.02.69-.02,1.02.07,3.89,1.08,7.83,2,11.48,3.8,1.69.83,3.47,1.55,4.7,3.09,1.09,1.37,1.52,2.75.44,4.27-1.26,1.77-1.71,3.84-1.54,6.08.18,2.41,1.17,4.83-.11,7.43.4-.19.6-.24.72-.35,1.82-1.73,3.36-3.69,4.43-5.95,1.49-3.14,1.45-6.17-1.11-8.86ZM62.56,66.5c-.31,1.57-.48,3.17-1.27,4.68,0-1.31.01-2.63,0-3.94,0-.45-.03-.9-.24-1.35-.82-1.69-.96-3.61-1.75-5.33-.23-.5-.08-1.16-.66-1.55-.13-.08-.32-.32-.07-.47.13-.08.3.29.55.04-.55-.26-.92-.65-1.13-1.26,3.28,1.49,5.32,5.46,4.59,9.17ZM56.52,56.5c.73.66.83,1.38.57,2.16.42.16.28-.36.45-.35.29,0,.16.31.18.46.14,1.16-.38,2.23-.53,3.42.75-.55.21-1.71,1.37-2.24-.7,1.22.2,1.92.62,2.56.53.82.58,1.71.88,2.54.62,1.72.95,3.56.95,5.58-1.37-1.87-3-3.35-4.1-5.29-1.16-2.06-1.47-4.13-.68-6.35.28-.79.49-1.57.28-2.49Z"/>
        <path class="cls-1" d="M78.3,60.22c-.71-.05-1.38-.14-1.9-.28,0,0-.01,0-.02,0-.1.57.17.86.7.98.25-.38.67-.14.99-.27.03-.25.11-.37.23-.43Z"/>
        <path class="cls-1" d="M103.82,51.84s0,0,0-.02c-.4.18-.8.36-1.2.54.07.09.12.19.08.32.52-.17,1.14-.09,1.5-.63-.22.08-.31-.04-.38-.22Z"/>
        <path class="cls-1" d="M102.62,52.37s-.05-.06-.07-.08c-.04.06-.08.11-.12.17h0c.06-.03.13-.06.19-.09Z"/>
        <path class="cls-1" d="M103.82,51.83s.06-.03.09-.04c-.03,0-.05,0-.08-.01,0,.02-.01.03-.02.06Z"/>
        <polygon class="cls-1" points="91.97 56.1 91.95 56.08 91.95 56.08 91.97 56.1"/>
        <path class="cls-1" d="M103.68,54.9c.48.08.96-.05,1.44.01-.48-.7-.96-.12-1.44-.01Z"/>
        <polygon class="cls-1" points="86.68 58.73 86.66 58.75 86.66 58.75 86.66 58.75 86.68 58.73 86.68 58.73"/>
        <path class="cls-1" d="M93.12,44.36c.62-1.16,1.39-2.2,2.07-3.31.43-.7.21-1.03-.59-1.01-.89.02-1.57.46-2.13,1.11-1.33,1.54-1.86,3.35-1.74,5.37.01.23.34.64-.22.72,1.25,1.34,2.57,2.64,2.56,4.64.06-.18.19-.36.31-.53-.25-.85-.5-1.69-.74-2.54-.44-1.55-.29-2.99.49-4.45ZM92.13,48.89c-1.4-2.42-1.31-5.74,1.01-7.68.21-.18.37-.43.68-.44.25-.01.47-.43.73-.09.25.32.02.58-.18.83-1.01,1.22-1.78,2.57-2.22,4.1-.32,1.09-.29,2.17-.01,3.29Z"/>
        <path class="cls-1" d="M93.34,52.61s.03,0,.05,0c0-.03,0-.05,0-.09-.02.03-.04.06-.06.09,0,0,0,0,0,0Z"/>
        <path class="cls-1" d="M77.07,48.22c-.09-.62-.2-1.24-.07-1.69.05.39-.26.96.29,1.45-.1-.6-.2-1.21-.3-1.81-.12.7-.34,1.4.08,2.05Z"/>
      </g>
    </g>
  </g>
</svg>